<svg xmlns="http://www.w3.org/2000/svg" viewBox="0 0 800 1000" width="800" height="1000" role="img">
  <style>
    text { -webkit-font-smoothing:antialiased; }
    .spin { transform-box:fill-box; transform-origin:center; animation:spin 22s linear infinite; }
    .spinr { transform-box:fill-box; transform-origin:center; animation:spin 30s linear infinite reverse; }
    .pulse { animation:pulse 3.4s ease-in-out infinite; transform-box:fill-box; transform-origin:center; }
    .flow { stroke-dasharray:10 14; animation:flow 2.6s linear infinite; }
    .flowS { stroke-dasharray:4 10; animation:flow 1.8s linear infinite; }
    .twinkle { animation:twinkle 3s ease-in-out infinite; }
    .sweep { transform-box:fill-box; transform-origin:center; animation:spin 6s linear infinite; }
    .draw { stroke-dasharray:1600; stroke-dashoffset:1600; animation:draw 4s ease-in-out infinite alternate; }
    @keyframes spin { to { transform:rotate(360deg); } }
    @keyframes pulse { 0%,100%{ opacity:.35; transform:scale(.94);} 50%{ opacity:1; transform:scale(1.06);} }
    @keyframes flow { to { stroke-dashoffset:-48; } }
    @keyframes twinkle { 0%,100%{opacity:.25;} 50%{opacity:1;} }
    @keyframes draw { to { stroke-dashoffset:0; } }
    
  </style>
  <g stroke="#f2efe6" stroke-width="1" opacity="0.05"><line x1="40" y1="0" x2="40" y2="1000"/><line x1="80" y1="0" x2="80" y2="1000"/><line x1="120" y1="0" x2="120" y2="1000"/><line x1="160" y1="0" x2="160" y2="1000"/><line x1="200" y1="0" x2="200" y2="1000"/><line x1="240" y1="0" x2="240" y2="1000"/><line x1="280" y1="0" x2="280" y2="1000"/><line x1="320" y1="0" x2="320" y2="1000"/><line x1="360" y1="0" x2="360" y2="1000"/><line x1="400" y1="0" x2="400" y2="1000"/><line x1="440" y1="0" x2="440" y2="1000"/><line x1="480" y1="0" x2="480" y2="1000"/><line x1="520" y1="0" x2="520" y2="1000"/><line x1="560" y1="0" x2="560" y2="1000"/><line x1="600" y1="0" x2="600" y2="1000"/><line x1="640" y1="0" x2="640" y2="1000"/><line x1="680" y1="0" x2="680" y2="1000"/><line x1="720" y1="0" x2="720" y2="1000"/><line x1="760" y1="0" x2="760" y2="1000"/><line x1="0" y1="40" x2="800" y2="40"/><line x1="0" y1="80" x2="800" y2="80"/><line x1="0" y1="120" x2="800" y2="120"/><line x1="0" y1="160" x2="800" y2="160"/><line x1="0" y1="200" x2="800" y2="200"/><line x1="0" y1="240" x2="800" y2="240"/><line x1="0" y1="280" x2="800" y2="280"/><line x1="0" y1="320" x2="800" y2="320"/><line x1="0" y1="360" x2="800" y2="360"/><line x1="0" y1="400" x2="800" y2="400"/><line x1="0" y1="440" x2="800" y2="440"/><line x1="0" y1="480" x2="800" y2="480"/><line x1="0" y1="520" x2="800" y2="520"/><line x1="0" y1="560" x2="800" y2="560"/><line x1="0" y1="600" x2="800" y2="600"/><line x1="0" y1="640" x2="800" y2="640"/><line x1="0" y1="680" x2="800" y2="680"/><line x1="0" y1="720" x2="800" y2="720"/><line x1="0" y1="760" x2="800" y2="760"/><line x1="0" y1="800" x2="800" y2="800"/><line x1="0" y1="840" x2="800" y2="840"/><line x1="0" y1="880" x2="800" y2="880"/><line x1="0" y1="920" x2="800" y2="920"/><line x1="0" y1="960" x2="800" y2="960"/></g><line x1="30" y1="30" x2="56" y2="30" stroke="#c9f24e" stroke-width="2"/><line x1="30" y1="30" x2="30" y2="56" stroke="#c9f24e" stroke-width="2"/><line x1="770" y1="30" x2="744" y2="30" stroke="#c9f24e" stroke-width="2"/><line x1="770" y1="30" x2="770" y2="56" stroke="#c9f24e" stroke-width="2"/><line x1="30" y1="970" x2="56" y2="970" stroke="#c9f24e" stroke-width="2"/><line x1="30" y1="970" x2="30" y2="944" stroke="#c9f24e" stroke-width="2"/><line x1="770" y1="970" x2="744" y2="970" stroke="#c9f24e" stroke-width="2"/><line x1="770" y1="970" x2="770" y2="944" stroke="#c9f24e" stroke-width="2"/><polygon class="spin" points="400.0,160.0 659.8,310.0 659.8,610.0 400.0,760.0 140.2,610.0 140.2,310.0" fill="none" stroke="#f2efe6" stroke-width="1.2" opacity="0.18"/><polygon class="spinr" points="400.0,230.0 599.2,345.0 599.2,575.0 400.0,690.0 200.8,575.0 200.8,345.0" fill="none" stroke="#f2efe6" stroke-width="1.2" opacity="0.24"/><polygon class="spin" points="400.0,298.0 540.3,379.0 540.3,541.0 400.0,622.0 259.7,541.0 259.7,379.0" fill="none" stroke="#f2efe6" stroke-width="1.2" opacity="0.3"/><line x1="400.0" y1="460.0" x2="608.8" y2="460.0" stroke="#f2efe6" stroke-width="0.8" opacity="0.10"/><line x1="400.0" y1="460.0" x2="592.9" y2="571.4" stroke="#f2efe6" stroke-width="0.8" opacity="0.10"/><line x1="400.0" y1="460.0" x2="535.1" y2="694.0" stroke="#f2efe6" stroke-width="0.8" opacity="0.10"/><line x1="400.0" y1="460.0" x2="400.0" y2="670.5" stroke="#f2efe6" stroke-width="0.8" opacity="0.10"/><line x1="400.0" y1="460.0" x2="292.0" y2="647.1" stroke="#f2efe6" stroke-width="0.8" opacity="0.10"/><line x1="400.0" y1="460.0" x2="204.0" y2="573.2" stroke="#f2efe6" stroke-width="0.8" opacity="0.10"/><line x1="400.0" y1="460.0" x2="226.0" y2="460.0" stroke="#f2efe6" stroke-width="0.8" opacity="0.10"/><line x1="400.0" y1="460.0" x2="212.5" y2="351.7" stroke="#f2efe6" stroke-width="0.8" opacity="0.10"/><line x1="400.0" y1="460.0" x2="284.1" y2="259.2" stroke="#f2efe6" stroke-width="0.8" opacity="0.10"/><line x1="400.0" y1="460.0" x2="400.0" y2="206.9" stroke="#f2efe6" stroke-width="0.8" opacity="0.10"/><line x1="400.0" y1="460.0" x2="481.1" y2="319.5" stroke="#f2efe6" stroke-width="0.8" opacity="0.10"/><line x1="400.0" y1="460.0" x2="564.1" y2="365.3" stroke="#f2efe6" stroke-width="0.8" opacity="0.10"/><circle class="twinkle" style="animation-delay:0.0s" cx="608.8" cy="460.0" r="3.2" fill="#c9f24e"/><circle class="twinkle" style="animation-delay:0.2s" cx="592.9" cy="571.4" r="3.2" fill="#f2efe6"/><circle class="twinkle" style="animation-delay:0.4s" cx="535.1" cy="694.0" r="3.2" fill="#f2efe6"/><circle class="twinkle" style="animation-delay:0.6s" cx="400.0" cy="670.5" r="3.2" fill="#f2efe6"/><circle class="twinkle" style="animation-delay:0.8s" cx="292.0" cy="647.1" r="3.2" fill="#c9f24e"/><circle class="twinkle" style="animation-delay:1.0s" cx="204.0" cy="573.2" r="3.2" fill="#f2efe6"/><circle class="twinkle" style="animation-delay:1.2s" cx="226.0" cy="460.0" r="3.2" fill="#f2efe6"/><circle class="twinkle" style="animation-delay:1.4s" cx="212.5" cy="351.7" r="3.2" fill="#f2efe6"/><circle class="twinkle" style="animation-delay:1.6s" cx="284.1" cy="259.2" r="3.2" fill="#c9f24e"/><circle class="twinkle" style="animation-delay:1.8s" cx="400.0" cy="206.9" r="3.2" fill="#f2efe6"/><circle class="twinkle" style="animation-delay:2.0s" cx="481.1" cy="319.5" r="3.2" fill="#f2efe6"/><circle class="twinkle" style="animation-delay:2.2s" cx="564.1" cy="365.3" r="3.2" fill="#f2efe6"/><polygon class="pulse" points="400.0,390.0 460.0,426.0 460.0,500.0 400.0,542.0 340.0,500.0 340.0,426.0" fill="#c9f24e" opacity="0.12" stroke="#c9f24e" stroke-width="1.5"/><path d="M378.0,460.0 l16,16 l30,-34" fill="none" stroke="#c9f24e" stroke-width="4" stroke-linecap="round" stroke-linejoin="round"/>
  <text x="34" y="54" font-family="'JetBrains Mono',monospace" font-size="15" letter-spacing="2"
        fill="#f2efe6" opacity="0.62">VYREX // 01</text>
  <text x="766" y="54" text-anchor="end" font-family="'JetBrains Mono',monospace" font-size="13"
        letter-spacing="3" fill="#c9f24e" opacity="0.85">AIR-GAPPED SOC</text>
  <text x="34" y="966" font-family="'JetBrains Mono',monospace" font-size="13" letter-spacing="3"
        fill="#f2efe6" opacity="0.4">SYS // SECURE</text>
  <text x="770" y="850" text-anchor="end" font-family="'Syne','Arial Black',sans-serif"
        font-weight="800" font-size="320" fill="none" stroke="#f2efe6" stroke-width="1"
        opacity="0.06" letter-spacing="-10">01</text>
</svg>