<svg xmlns="http://www.w3.org/2000/svg" viewBox="0 0 800 1000" width="800" height="1000" role="img">
  <style>
    text { -webkit-font-smoothing:antialiased; }
    .spin { transform-box:fill-box; transform-origin:center; animation:spin 22s linear infinite; }
    .spinr { transform-box:fill-box; transform-origin:center; animation:spin 30s linear infinite reverse; }
    .pulse { animation:pulse 3.4s ease-in-out infinite; transform-box:fill-box; transform-origin:center; }
    .flow { stroke-dasharray:10 14; animation:flow 2.6s linear infinite; }
    .flowS { stroke-dasharray:4 10; animation:flow 1.8s linear infinite; }
    .twinkle { animation:twinkle 3s ease-in-out infinite; }
    .sweep { transform-box:fill-box; transform-origin:center; animation:spin 6s linear infinite; }
    .draw { stroke-dasharray:1600; stroke-dashoffset:1600; animation:draw 4s ease-in-out infinite alternate; }
    @keyframes spin { to { transform:rotate(360deg); } }
    @keyframes pulse { 0%,100%{ opacity:.35; transform:scale(.94);} 50%{ opacity:1; transform:scale(1.06);} }
    @keyframes flow { to { stroke-dashoffset:-48; } }
    @keyframes twinkle { 0%,100%{opacity:.25;} 50%{opacity:1;} }
    @keyframes draw { to { stroke-dashoffset:0; } }
    
  </style>
  <g stroke="#f2efe6" stroke-width="1" opacity="0.05"><line x1="40" y1="0" x2="40" y2="1000"/><line x1="80" y1="0" x2="80" y2="1000"/><line x1="120" y1="0" x2="120" y2="1000"/><line x1="160" y1="0" x2="160" y2="1000"/><line x1="200" y1="0" x2="200" y2="1000"/><line x1="240" y1="0" x2="240" y2="1000"/><line x1="280" y1="0" x2="280" y2="1000"/><line x1="320" y1="0" x2="320" y2="1000"/><line x1="360" y1="0" x2="360" y2="1000"/><line x1="400" y1="0" x2="400" y2="1000"/><line x1="440" y1="0" x2="440" y2="1000"/><line x1="480" y1="0" x2="480" y2="1000"/><line x1="520" y1="0" x2="520" y2="1000"/><line x1="560" y1="0" x2="560" y2="1000"/><line x1="600" y1="0" x2="600" y2="1000"/><line x1="640" y1="0" x2="640" y2="1000"/><line x1="680" y1="0" x2="680" y2="1000"/><line x1="720" y1="0" x2="720" y2="1000"/><line x1="760" y1="0" x2="760" y2="1000"/><line x1="0" y1="40" x2="800" y2="40"/><line x1="0" y1="80" x2="800" y2="80"/><line x1="0" y1="120" x2="800" y2="120"/><line x1="0" y1="160" x2="800" y2="160"/><line x1="0" y1="200" x2="800" y2="200"/><line x1="0" y1="240" x2="800" y2="240"/><line x1="0" y1="280" x2="800" y2="280"/><line x1="0" y1="320" x2="800" y2="320"/><line x1="0" y1="360" x2="800" y2="360"/><line x1="0" y1="400" x2="800" y2="400"/><line x1="0" y1="440" x2="800" y2="440"/><line x1="0" y1="480" x2="800" y2="480"/><line x1="0" y1="520" x2="800" y2="520"/><line x1="0" y1="560" x2="800" y2="560"/><line x1="0" y1="600" x2="800" y2="600"/><line x1="0" y1="640" x2="800" y2="640"/><line x1="0" y1="680" x2="800" y2="680"/><line x1="0" y1="720" x2="800" y2="720"/><line x1="0" y1="760" x2="800" y2="760"/><line x1="0" y1="800" x2="800" y2="800"/><line x1="0" y1="840" x2="800" y2="840"/><line x1="0" y1="880" x2="800" y2="880"/><line x1="0" y1="920" x2="800" y2="920"/><line x1="0" y1="960" x2="800" y2="960"/></g><line x1="30" y1="30" x2="56" y2="30" stroke="#c9f24e" stroke-width="2"/><line x1="30" y1="30" x2="30" y2="56" stroke="#c9f24e" stroke-width="2"/><line x1="770" y1="30" x2="744" y2="30" stroke="#c9f24e" stroke-width="2"/><line x1="770" y1="30" x2="770" y2="56" stroke="#c9f24e" stroke-width="2"/><line x1="30" y1="970" x2="56" y2="970" stroke="#c9f24e" stroke-width="2"/><line x1="30" y1="970" x2="30" y2="944" stroke="#c9f24e" stroke-width="2"/><line x1="770" y1="970" x2="744" y2="970" stroke="#c9f24e" stroke-width="2"/><line x1="770" y1="970" x2="770" y2="944" stroke="#c9f24e" stroke-width="2"/><circle class="pulse" style="animation-delay:0.00s" cx="400.0" cy="540.0" r="70" fill="none" stroke="#f2efe6" stroke-width="1" opacity="0.40"/><circle class="pulse" style="animation-delay:0.35s" cx="400.0" cy="540.0" r="126" fill="none" stroke="#f2efe6" stroke-width="1" opacity="0.35"/><circle class="pulse" style="animation-delay:0.70s" cx="400.0" cy="540.0" r="182" fill="none" stroke="#f2efe6" stroke-width="1" opacity="0.30"/><circle class="pulse" style="animation-delay:1.05s" cx="400.0" cy="540.0" r="238" fill="none" stroke="#f2efe6" stroke-width="1" opacity="0.25"/><circle class="pulse" style="animation-delay:1.40s" cx="400.0" cy="540.0" r="294" fill="none" stroke="#f2efe6" stroke-width="1" opacity="0.20"/><circle class="pulse" style="animation-delay:1.75s" cx="400.0" cy="540.0" r="350" fill="none" stroke="#f2efe6" stroke-width="1" opacity="0.15"/><circle class="pulse" style="animation-delay:2.10s" cx="400.0" cy="540.0" r="406" fill="none" stroke="#f2efe6" stroke-width="1" opacity="0.10"/><path d="M400.0,540.0 L650.0,240.0 L520.0,180.0 Z" fill="#c9f24e" opacity="0.08"/><line class="flow" x1="400.0" y1="540.0" x2="585.0" y2="210.0" stroke="#c9f24e" stroke-width="2"/><circle cx="294.8" cy="535.6" r="1.7" fill="#7c8aa0" opacity="0.18"/><circle cx="244.5" cy="472.1" r="0.9" fill="#7c8aa0" opacity="0.33"/><circle cx="229.5" cy="624.1" r="0.9" fill="#7c8aa0" opacity="0.18"/><circle cx="99.2" cy="473.6" r="1.0" fill="#7c8aa0" opacity="0.23"/><circle cx="110.4" cy="353.8" r="1.6" fill="#7c8aa0" opacity="0.29"/><circle cx="371.8" cy="471.6" r="2.0" fill="#7c8aa0" opacity="0.25"/><circle cx="308.2" cy="565.6" r="1.2" fill="#7c8aa0" opacity="0.44"/><circle cx="170.6" cy="588.5" r="1.7" fill="#7c8aa0" opacity="0.28"/><circle cx="328.4" cy="507.0" r="0.9" fill="#7c8aa0" opacity="0.22"/><circle cx="251.7" cy="424.0" r="1.2" fill="#7c8aa0" opacity="0.35"/><circle cx="255.4" cy="500.4" r="1.9" fill="#7c8aa0" opacity="0.39"/><circle cx="168.8" cy="562.6" r="1.5" fill="#7c8aa0" opacity="0.46"/><circle cx="292.8" cy="440.3" r="2.2" fill="#7c8aa0" opacity="0.19"/><circle cx="118.9" cy="481.2" r="1.0" fill="#7c8aa0" opacity="0.32"/><circle cx="166.1" cy="654.5" r="1.9" fill="#7c8aa0" opacity="0.35"/><circle cx="317.3" cy="409.9" r="1.8" fill="#7c8aa0" opacity="0.36"/><circle cx="226.2" cy="447.6" r="2.0" fill="#7c8aa0" opacity="0.48"/><circle cx="152.6" cy="462.4" r="0.9" fill="#7c8aa0" opacity="0.40"/><circle cx="105.8" cy="336.2" r="2.0" fill="#7c8aa0" opacity="0.25"/><circle cx="142.3" cy="501.1" r="0.8" fill="#7c8aa0" opacity="0.31"/><circle cx="307.4" cy="561.7" r="0.9" fill="#7c8aa0" opacity="0.42"/><circle cx="271.6" cy="579.4" r="1.3" fill="#7c8aa0" opacity="0.45"/><circle cx="219.4" cy="612.8" r="1.6" fill="#7c8aa0" opacity="0.46"/><circle cx="203.2" cy="288.7" r="1.2" fill="#7c8aa0" opacity="0.30"/><circle cx="76.5" cy="506.7" r="2.1" fill="#7c8aa0" opacity="0.20"/><circle cx="273.4" cy="567.8" r="1.1" fill="#7c8aa0" opacity="0.32"/><circle cx="278.5" cy="472.9" r="0.8" fill="#7c8aa0" opacity="0.30"/><circle cx="171.8" cy="512.3" r="2.1" fill="#7c8aa0" opacity="0.39"/><circle cx="171.9" cy="449.9" r="1.7" fill="#7c8aa0" opacity="0.17"/><circle cx="252.8" cy="285.5" r="2.0" fill="#7c8aa0" opacity="0.43"/><circle cx="222.6" cy="511.2" r="0.9" fill="#7c8aa0" opacity="0.37"/><circle cx="326.6" cy="572.3" r="1.1" fill="#7c8aa0" opacity="0.21"/><circle cx="324.4" cy="534.7" r="0.8" fill="#7c8aa0" opacity="0.20"/><circle cx="241.0" cy="597.4" r="0.8" fill="#7c8aa0" opacity="0.46"/><circle cx="310.8" cy="485.5" r="1.2" fill="#7c8aa0" opacity="0.27"/><circle cx="303.8" cy="529.2" r="2.0" fill="#7c8aa0" opacity="0.50"/><circle cx="203.4" cy="481.4" r="0.9" fill="#7c8aa0" opacity="0.19"/><circle cx="261.0" cy="529.6" r="2.0" fill="#7c8aa0" opacity="0.21"/><circle cx="94.3" cy="700.5" r="1.5" fill="#7c8aa0" opacity="0.20"/><circle cx="337.9" cy="512.0" r="1.5" fill="#7c8aa0" opacity="0.49"/><circle cx="251.0" cy="316.2" r="1.2" fill="#7c8aa0" opacity="0.28"/><circle cx="116.2" cy="607.1" r="1.5" fill="#7c8aa0" opacity="0.42"/><circle cx="273.3" cy="533.4" r="1.9" fill="#7c8aa0" opacity="0.49"/><circle cx="228.0" cy="292.0" r="1.9" fill="#7c8aa0" opacity="0.41"/><circle cx="186.5" cy="567.5" r="1.3" fill="#7c8aa0" opacity="0.16"/><circle cx="272.1" cy="605.8" r="1.2" fill="#7c8aa0" opacity="0.39"/><circle cx="319.9" cy="363.1" r="2.1" fill="#7c8aa0" opacity="0.50"/><circle cx="329.8" cy="385.9" r="1.1" fill="#7c8aa0" opacity="0.23"/><circle cx="280.7" cy="561.8" r="1.7" fill="#7c8aa0" opacity="0.47"/><circle cx="280.3" cy="375.0" r="1.7" fill="#7c8aa0" opacity="0.43"/><circle cx="159.8" cy="634.7" r="2.1" fill="#7c8aa0" opacity="0.42"/><circle cx="256.2" cy="396.1" r="1.0" fill="#7c8aa0" opacity="0.43"/><circle cx="100.2" cy="523.0" r="2.2" fill="#7c8aa0" opacity="0.29"/><circle cx="61.3" cy="479.4" r="1.8" fill="#7c8aa0" opacity="0.21"/><circle cx="299.4" cy="571.3" r="2.1" fill="#7c8aa0" opacity="0.43"/><circle cx="103.1" cy="621.7" r="2.2" fill="#7c8aa0" opacity="0.38"/><circle cx="176.3" cy="520.3" r="1.0" fill="#7c8aa0" opacity="0.15"/><circle cx="300.8" cy="305.2" r="1.5" fill="#7c8aa0" opacity="0.48"/><circle cx="87.2" cy="465.6" r="2.0" fill="#7c8aa0" opacity="0.22"/><circle cx="252.6" cy="552.4" r="1.1" fill="#7c8aa0" opacity="0.36"/><circle cx="214.8" cy="553.2" r="1.0" fill="#7c8aa0" opacity="0.47"/><circle cx="203.4" cy="521.5" r="1.6" fill="#7c8aa0" opacity="0.47"/><circle cx="72.1" cy="469.9" r="1.5" fill="#7c8aa0" opacity="0.34"/><circle cx="339.3" cy="515.0" r="1.4" fill="#7c8aa0" opacity="0.21"/><circle cx="139.4" cy="688.1" r="1.0" fill="#7c8aa0" opacity="0.32"/><circle cx="232.7" cy="386.6" r="1.3" fill="#7c8aa0" opacity="0.33"/><circle cx="133.6" cy="412.7" r="0.9" fill="#7c8aa0" opacity="0.35"/><circle cx="257.5" cy="552.8" r="1.9" fill="#7c8aa0" opacity="0.33"/><circle cx="141.5" cy="413.0" r="2.1" fill="#7c8aa0" opacity="0.31"/><circle cx="219.0" cy="430.2" r="1.5" fill="#7c8aa0" opacity="0.39"/><circle cx="187.7" cy="482.2" r="1.5" fill="#7c8aa0" opacity="0.48"/><circle cx="152.3" cy="332.7" r="2.1" fill="#7c8aa0" opacity="0.24"/><circle cx="91.6" cy="389.9" r="2.0" fill="#7c8aa0" opacity="0.20"/><circle cx="216.6" cy="599.0" r="0.9" fill="#7c8aa0" opacity="0.23"/><circle cx="159.3" cy="640.6" r="1.9" fill="#7c8aa0" opacity="0.46"/><circle cx="134.0" cy="609.1" r="1.7" fill="#7c8aa0" opacity="0.20"/><circle cx="215.9" cy="242.0" r="1.1" fill="#7c8aa0" opacity="0.48"/><circle cx="196.8" cy="504.8" r="2.2" fill="#7c8aa0" opacity="0.44"/><circle cx="216.1" cy="585.4" r="1.5" fill="#7c8aa0" opacity="0.27"/><circle cx="247.0" cy="568.1" r="1.8" fill="#7c8aa0" opacity="0.16"/><circle cx="226.4" cy="457.6" r="0.8" fill="#7c8aa0" opacity="0.27"/><circle cx="219.6" cy="425.5" r="0.9" fill="#7c8aa0" opacity="0.49"/><circle cx="168.6" cy="275.4" r="0.9" fill="#7c8aa0" opacity="0.24"/><circle cx="136.1" cy="668.9" r="1.2" fill="#7c8aa0" opacity="0.20"/><circle cx="74.1" cy="469.4" r="1.9" fill="#7c8aa0" opacity="0.24"/><circle cx="75.8" cy="627.3" r="1.6" fill="#7c8aa0" opacity="0.40"/><circle cx="327.9" cy="567.8" r="1.8" fill="#7c8aa0" opacity="0.30"/><circle cx="85.1" cy="672.1" r="1.7" fill="#7c8aa0" opacity="0.43"/><circle cx="105.4" cy="656.8" r="0.9" fill="#7c8aa0" opacity="0.45"/><circle cx="244.0" cy="497.1" r="1.6" fill="#7c8aa0" opacity="0.47"/><circle cx="301.4" cy="545.5" r="1.5" fill="#7c8aa0" opacity="0.23"/><circle cx="297.5" cy="575.4" r="0.9" fill="#7c8aa0" opacity="0.22"/><circle cx="248.5" cy="536.8" r="1.9" fill="#7c8aa0" opacity="0.25"/><circle cx="293.5" cy="501.2" r="1.3" fill="#7c8aa0" opacity="0.16"/><circle cx="335.6" cy="545.6" r="1.8" fill="#7c8aa0" opacity="0.34"/><circle cx="201.3" cy="578.8" r="2.1" fill="#7c8aa0" opacity="0.19"/><circle cx="283.0" cy="390.8" r="1.5" fill="#7c8aa0" opacity="0.44"/><circle cx="190.8" cy="505.7" r="1.8" fill="#7c8aa0" opacity="0.49"/><circle cx="91.2" cy="516.9" r="1.8" fill="#7c8aa0" opacity="0.37"/><circle cx="238.5" cy="510.2" r="0.9" fill="#7c8aa0" opacity="0.20"/><circle cx="140.0" cy="650.0" r="1.2" fill="#7c8aa0" opacity="0.21"/><circle cx="109.5" cy="654.7" r="2.0" fill="#7c8aa0" opacity="0.38"/><circle cx="267.4" cy="544.2" r="1.2" fill="#7c8aa0" opacity="0.31"/><circle cx="212.2" cy="587.7" r="1.2" fill="#7c8aa0" opacity="0.49"/><circle cx="313.4" cy="333.3" r="1.1" fill="#7c8aa0" opacity="0.49"/><circle cx="233.0" cy="537.2" r="0.8" fill="#7c8aa0" opacity="0.28"/><circle cx="198.9" cy="476.7" r="1.1" fill="#7c8aa0" opacity="0.33"/><circle cx="278.8" cy="608.6" r="0.9" fill="#7c8aa0" opacity="0.29"/><circle cx="339.9" cy="569.1" r="1.2" fill="#7c8aa0" opacity="0.23"/><circle cx="207.9" cy="435.4" r="1.9" fill="#7c8aa0" opacity="0.38"/><circle cx="157.9" cy="325.1" r="1.3" fill="#7c8aa0" opacity="0.26"/><circle cx="361.5" cy="442.5" r="1.8" fill="#7c8aa0" opacity="0.38"/><circle cx="120.0" cy="674.3" r="2.0" fill="#7c8aa0" opacity="0.37"/><circle cx="179.3" cy="331.4" r="1.0" fill="#7c8aa0" opacity="0.33"/><circle cx="109.1" cy="431.6" r="1.9" fill="#7c8aa0" opacity="0.44"/><circle cx="111.6" cy="384.0" r="1.8" fill="#7c8aa0" opacity="0.39"/><circle cx="331.2" cy="548.5" r="1.0" fill="#7c8aa0" opacity="0.28"/><circle cx="107.1" cy="643.8" r="1.6" fill="#7c8aa0" opacity="0.37"/><circle cx="177.5" cy="397.6" r="1.5" fill="#7c8aa0" opacity="0.15"/><circle cx="216.3" cy="322.8" r="1.5" fill="#7c8aa0" opacity="0.34"/><circle class="pulse" cx="400.0" cy="540.0" r="9" fill="#c9f24e"/><circle cx="585.0" cy="210.0" r="7" fill="#f2efe6"/><text x="600.0" y="210.0" font-family="JetBrains Mono,monospace" font-size="14" fill="#f2efe6" opacity="0.7">BOB</text><circle cx="200.0" cy="390.0" r="7" fill="none" stroke="#7c8aa0" stroke-width="2"/><text x="150.0" y="390.0" font-family="JetBrains Mono,monospace" font-size="14" fill="#7c8aa0" opacity="0.8">EVE</text><text x="386.0" y="574.0" font-family="JetBrains Mono,monospace" font-size="13" fill="#c9f24e" opacity="0.85">TX</text>
  <text x="34" y="54" font-family="'JetBrains Mono',monospace" font-size="15" letter-spacing="2"
        fill="#f2efe6" opacity="0.62">RHO // 02</text>
  <text x="766" y="54" text-anchor="end" font-family="'JetBrains Mono',monospace" font-size="13"
        letter-spacing="3" fill="#c9f24e" opacity="0.85">WIRELESS · RL</text>
  <text x="34" y="966" font-family="'JetBrains Mono',monospace" font-size="13" letter-spacing="3"
        fill="#f2efe6" opacity="0.4">SYS // SECURE</text>
  <text x="770" y="850" text-anchor="end" font-family="'Syne','Arial Black',sans-serif"
        font-weight="800" font-size="320" fill="none" stroke="#f2efe6" stroke-width="1"
        opacity="0.06" letter-spacing="-10">02</text>
</svg>