<svg xmlns="http://www.w3.org/2000/svg" viewBox="0 0 800 1000" width="800" height="1000" role="img">
  <style>
    text { -webkit-font-smoothing:antialiased; }
    .spin { transform-box:fill-box; transform-origin:center; animation:spin 22s linear infinite; }
    .spinr { transform-box:fill-box; transform-origin:center; animation:spin 30s linear infinite reverse; }
    .pulse { animation:pulse 3.4s ease-in-out infinite; transform-box:fill-box; transform-origin:center; }
    .flow { stroke-dasharray:10 14; animation:flow 2.6s linear infinite; }
    .flowS { stroke-dasharray:4 10; animation:flow 1.8s linear infinite; }
    .twinkle { animation:twinkle 3s ease-in-out infinite; }
    .sweep { transform-box:fill-box; transform-origin:center; animation:spin 6s linear infinite; }
    .draw { stroke-dasharray:1600; stroke-dashoffset:1600; animation:draw 4s ease-in-out infinite alternate; }
    @keyframes spin { to { transform:rotate(360deg); } }
    @keyframes pulse { 0%,100%{ opacity:.35; transform:scale(.94);} 50%{ opacity:1; transform:scale(1.06);} }
    @keyframes flow { to { stroke-dashoffset:-48; } }
    @keyframes twinkle { 0%,100%{opacity:.25;} 50%{opacity:1;} }
    @keyframes draw { to { stroke-dashoffset:0; } }
    
  </style>
  <g stroke="#f2efe6" stroke-width="1" opacity="0.05"><line x1="40" y1="0" x2="40" y2="1000"/><line x1="80" y1="0" x2="80" y2="1000"/><line x1="120" y1="0" x2="120" y2="1000"/><line x1="160" y1="0" x2="160" y2="1000"/><line x1="200" y1="0" x2="200" y2="1000"/><line x1="240" y1="0" x2="240" y2="1000"/><line x1="280" y1="0" x2="280" y2="1000"/><line x1="320" y1="0" x2="320" y2="1000"/><line x1="360" y1="0" x2="360" y2="1000"/><line x1="400" y1="0" x2="400" y2="1000"/><line x1="440" y1="0" x2="440" y2="1000"/><line x1="480" y1="0" x2="480" y2="1000"/><line x1="520" y1="0" x2="520" y2="1000"/><line x1="560" y1="0" x2="560" y2="1000"/><line x1="600" y1="0" x2="600" y2="1000"/><line x1="640" y1="0" x2="640" y2="1000"/><line x1="680" y1="0" x2="680" y2="1000"/><line x1="720" y1="0" x2="720" y2="1000"/><line x1="760" y1="0" x2="760" y2="1000"/><line x1="0" y1="40" x2="800" y2="40"/><line x1="0" y1="80" x2="800" y2="80"/><line x1="0" y1="120" x2="800" y2="120"/><line x1="0" y1="160" x2="800" y2="160"/><line x1="0" y1="200" x2="800" y2="200"/><line x1="0" y1="240" x2="800" y2="240"/><line x1="0" y1="280" x2="800" y2="280"/><line x1="0" y1="320" x2="800" y2="320"/><line x1="0" y1="360" x2="800" y2="360"/><line x1="0" y1="400" x2="800" y2="400"/><line x1="0" y1="440" x2="800" y2="440"/><line x1="0" y1="480" x2="800" y2="480"/><line x1="0" y1="520" x2="800" y2="520"/><line x1="0" y1="560" x2="800" y2="560"/><line x1="0" y1="600" x2="800" y2="600"/><line x1="0" y1="640" x2="800" y2="640"/><line x1="0" y1="680" x2="800" y2="680"/><line x1="0" y1="720" x2="800" y2="720"/><line x1="0" y1="760" x2="800" y2="760"/><line x1="0" y1="800" x2="800" y2="800"/><line x1="0" y1="840" x2="800" y2="840"/><line x1="0" y1="880" x2="800" y2="880"/><line x1="0" y1="920" x2="800" y2="920"/><line x1="0" y1="960" x2="800" y2="960"/></g><line x1="30" y1="30" x2="56" y2="30" stroke="#c9f24e" stroke-width="2"/><line x1="30" y1="30" x2="30" y2="56" stroke="#c9f24e" stroke-width="2"/><line x1="770" y1="30" x2="744" y2="30" stroke="#c9f24e" stroke-width="2"/><line x1="770" y1="30" x2="770" y2="56" stroke="#c9f24e" stroke-width="2"/><line x1="30" y1="970" x2="56" y2="970" stroke="#c9f24e" stroke-width="2"/><line x1="30" y1="970" x2="30" y2="944" stroke="#c9f24e" stroke-width="2"/><line x1="770" y1="970" x2="744" y2="970" stroke="#c9f24e" stroke-width="2"/><line x1="770" y1="970" x2="770" y2="944" stroke="#c9f24e" stroke-width="2"/><path d="M360.0,470.0 a40,40 0 0 1 80,0" fill="none" stroke="#f2efe6" stroke-width="2" opacity="0.50" stroke-linecap="round"/><path d="M360.0,470.0 a40,40 0 0 0 20.0,34.4" fill="none" stroke="#f2efe6" stroke-width="2" opacity="0.50"/><path d="M338.0,470.0 a62,62 0 0 1 124,0" fill="none" stroke="#f2efe6" stroke-width="2" opacity="0.47" stroke-linecap="round"/><path d="M338.0,470.0 a62,62 0 0 0 31.0,53.32" fill="none" stroke="#f2efe6" stroke-width="2" opacity="0.47"/><path d="M316.0,470.0 a84,84 0 0 1 168,0" fill="none" stroke="#f2efe6" stroke-width="2" opacity="0.44" stroke-linecap="round"/><path d="M316.0,470.0 a84,84 0 0 0 42.0,72.24" fill="none" stroke="#f2efe6" stroke-width="2" opacity="0.44"/><path d="M294.0,470.0 a106,106 0 0 1 212,0" fill="none" stroke="#f2efe6" stroke-width="2" opacity="0.41" stroke-linecap="round"/><path d="M294.0,470.0 a106,106 0 0 0 53.0,91.16" fill="none" stroke="#f2efe6" stroke-width="2" opacity="0.41"/><path d="M272.0,470.0 a128,128 0 0 1 256,0" fill="none" stroke="#f2efe6" stroke-width="2" opacity="0.38" stroke-linecap="round"/><path d="M272.0,470.0 a128,128 0 0 0 64.0,110.08" fill="none" stroke="#f2efe6" stroke-width="2" opacity="0.38"/><path d="M250.0,470.0 a150,150 0 0 1 300,0" fill="none" stroke="#f2efe6" stroke-width="2" opacity="0.35" stroke-linecap="round"/><path d="M250.0,470.0 a150,150 0 0 0 75.0,129.0" fill="none" stroke="#f2efe6" stroke-width="2" opacity="0.35"/><path d="M228.0,470.0 a172,172 0 0 1 344,0" fill="none" stroke="#f2efe6" stroke-width="2" opacity="0.32" stroke-linecap="round"/><path d="M228.0,470.0 a172,172 0 0 0 86.0,147.92" fill="none" stroke="#f2efe6" stroke-width="2" opacity="0.32"/><path d="M206.0,470.0 a194,194 0 0 1 388,0" fill="none" stroke="#f2efe6" stroke-width="2" opacity="0.29" stroke-linecap="round"/><path d="M206.0,470.0 a194,194 0 0 0 97.0,166.84" fill="none" stroke="#f2efe6" stroke-width="2" opacity="0.29"/><path d="M184.0,470.0 a216,216 0 0 1 432,0" fill="none" stroke="#f2efe6" stroke-width="2" opacity="0.26" stroke-linecap="round"/><path d="M184.0,470.0 a216,216 0 0 0 108.0,185.76" fill="none" stroke="#f2efe6" stroke-width="2" opacity="0.26"/><path d="M162.0,470.0 a238,238 0 0 1 476,0" fill="none" stroke="#f2efe6" stroke-width="2" opacity="0.23" stroke-linecap="round"/><path d="M162.0,470.0 a238,238 0 0 0 119.0,204.68" fill="none" stroke="#f2efe6" stroke-width="2" opacity="0.23"/><rect class="twinkle" style="animation-delay:2.5s" x="551.0" y="530.3" width="2.8" height="2.7" fill="#c9f24e" opacity="0.70"/><rect class="twinkle" style="animation-delay:1.6s" x="559.8" y="302.3" width="4.2" height="4.0" fill="#f2efe6" opacity="0.23"/><rect class="twinkle" style="animation-delay:2.6s" x="589.6" y="513.7" width="3.4" height="4.2" fill="#c9f24e" opacity="0.64"/><rect class="twinkle" style="animation-delay:1.3s" x="578.5" y="672.1" width="4.8" height="4.6" fill="#f2efe6" opacity="0.25"/><rect class="twinkle" style="animation-delay:1.2s" x="509.0" y="530.8" width="3.1" height="3.8" fill="#f2efe6" opacity="0.49"/><rect class="twinkle" style="animation-delay:2.6s" x="614.1" y="705.7" width="4.9" height="4.7" fill="#c9f24e" opacity="0.48"/><rect class="twinkle" style="animation-delay:3.0s" x="543.4" y="366.8" width="2.3" height="4.4" fill="#f2efe6" opacity="0.41"/><rect class="twinkle" style="animation-delay:2.2s" x="618.2" y="251.2" width="3.0" height="4.6" fill="#c9f24e" opacity="0.69"/><rect class="twinkle" style="animation-delay:1.8s" x="526.4" y="709.3" width="2.1" height="2.6" fill="#c9f24e" opacity="0.40"/><rect class="twinkle" style="animation-delay:0.9s" x="552.6" y="305.0" width="4.9" height="4.7" fill="#f2efe6" opacity="0.39"/><rect class="twinkle" style="animation-delay:0.7s" x="635.2" y="473.4" width="2.9" height="4.9" fill="#f2efe6" opacity="0.46"/><rect class="twinkle" style="animation-delay:0.1s" x="537.1" y="235.5" width="3.8" height="3.9" fill="#f2efe6" opacity="0.23"/><rect class="twinkle" style="animation-delay:1.0s" x="640.8" y="350.5" width="3.1" height="2.9" fill="#f2efe6" opacity="0.38"/><rect class="twinkle" style="animation-delay:0.1s" x="548.9" y="374.2" width="3.7" height="4.2" fill="#f2efe6" opacity="0.36"/><rect class="twinkle" style="animation-delay:1.6s" x="621.2" y="446.5" width="2.6" height="4.4" fill="#c9f24e" opacity="0.62"/><rect class="twinkle" style="animation-delay:0.9s" x="560.5" y="617.0" width="4.4" height="2.8" fill="#c9f24e" opacity="0.37"/><rect class="twinkle" style="animation-delay:0.5s" x="504.2" y="431.5" width="2.0" height="4.8" fill="#f2efe6" opacity="0.64"/><rect class="twinkle" style="animation-delay:0.7s" x="646.7" y="438.5" width="4.2" height="4.5" fill="#f2efe6" opacity="0.53"/><rect class="twinkle" style="animation-delay:0.2s" x="529.8" y="368.7" width="3.8" height="2.9" fill="#c9f24e" opacity="0.61"/><rect class="twinkle" style="animation-delay:0.0s" x="631.0" y="660.4" width="4.2" height="2.5" fill="#f2efe6" opacity="0.35"/><rect class="twinkle" style="animation-delay:1.8s" x="565.7" y="482.0" width="3.0" height="2.8" fill="#f2efe6" opacity="0.63"/><rect class="twinkle" style="animation-delay:1.6s" x="519.3" y="605.5" width="4.5" height="2.5" fill="#c9f24e" opacity="0.60"/><rect class="twinkle" style="animation-delay:1.9s" x="630.4" y="616.9" width="4.6" height="2.1" fill="#c9f24e" opacity="0.34"/><rect class="twinkle" style="animation-delay:0.4s" x="518.2" y="602.7" width="2.4" height="2.2" fill="#c9f24e" opacity="0.69"/><rect class="twinkle" style="animation-delay:0.9s" x="613.6" y="271.3" width="3.1" height="3.9" fill="#f2efe6" opacity="0.49"/><rect class="twinkle" style="animation-delay:1.7s" x="490.2" y="321.7" width="4.1" height="3.1" fill="#c9f24e" opacity="0.24"/><rect class="twinkle" style="animation-delay:2.1s" x="555.7" y="437.2" width="3.3" height="4.1" fill="#f2efe6" opacity="0.43"/><rect class="twinkle" style="animation-delay:2.4s" x="619.9" y="679.5" width="2.8" height="3.4" fill="#f2efe6" opacity="0.26"/><rect class="twinkle" style="animation-delay:0.3s" x="598.1" y="550.4" width="3.8" height="2.0" fill="#f2efe6" opacity="0.27"/><rect class="twinkle" style="animation-delay:2.6s" x="593.6" y="251.3" width="2.5" height="2.1" fill="#c9f24e" opacity="0.62"/><rect class="twinkle" style="animation-delay:0.1s" x="609.0" y="687.2" width="4.3" height="3.5" fill="#f2efe6" opacity="0.56"/><rect class="twinkle" style="animation-delay:1.8s" x="607.0" y="346.2" width="4.3" height="3.2" fill="#c9f24e" opacity="0.38"/><rect class="twinkle" style="animation-delay:2.3s" x="503.2" y="588.8" width="4.0" height="3.6" fill="#f2efe6" opacity="0.44"/><rect class="twinkle" style="animation-delay:2.2s" x="560.7" y="660.8" width="4.7" height="3.6" fill="#c9f24e" opacity="0.42"/><rect class="twinkle" style="animation-delay:1.8s" x="579.7" y="319.3" width="2.9" height="2.7" fill="#c9f24e" opacity="0.55"/><rect class="twinkle" style="animation-delay:2.6s" x="638.4" y="372.0" width="3.8" height="2.8" fill="#f2efe6" opacity="0.31"/><rect class="twinkle" style="animation-delay:2.5s" x="519.9" y="517.5" width="3.7" height="3.4" fill="#f2efe6" opacity="0.56"/><rect class="twinkle" style="animation-delay:1.4s" x="614.2" y="422.1" width="2.7" height="2.7" fill="#f2efe6" opacity="0.56"/><rect class="twinkle" style="animation-delay:1.3s" x="624.9" y="352.4" width="4.2" height="2.3" fill="#f2efe6" opacity="0.25"/><rect class="twinkle" style="animation-delay:2.0s" x="608.5" y="370.0" width="2.0" height="3.0" fill="#f2efe6" opacity="0.42"/><rect class="twinkle" style="animation-delay:0.8s" x="638.8" y="417.6" width="4.0" height="2.3" fill="#c9f24e" opacity="0.64"/><rect class="twinkle" style="animation-delay:2.0s" x="601.5" y="357.5" width="3.6" height="2.3" fill="#f2efe6" opacity="0.45"/><rect class="twinkle" style="animation-delay:2.1s" x="514.4" y="380.0" width="4.3" height="3.6" fill="#c9f24e" opacity="0.57"/><rect class="twinkle" style="animation-delay:2.3s" x="618.1" y="250.2" width="3.1" height="3.0" fill="#c9f24e" opacity="0.40"/><rect class="twinkle" style="animation-delay:0.3s" x="535.4" y="600.4" width="2.8" height="2.3" fill="#f2efe6" opacity="0.26"/><rect class="twinkle" style="animation-delay:1.2s" x="594.7" y="579.1" width="4.2" height="4.4" fill="#c9f24e" opacity="0.57"/><rect class="twinkle" style="animation-delay:1.6s" x="548.0" y="300.3" width="3.7" height="2.6" fill="#c9f24e" opacity="0.33"/><rect class="twinkle" style="animation-delay:1.7s" x="622.8" y="685.7" width="3.9" height="4.9" fill="#f2efe6" opacity="0.54"/><rect class="twinkle" style="animation-delay:2.0s" x="550.3" y="578.9" width="3.5" height="3.6" fill="#f2efe6" opacity="0.43"/><rect class="twinkle" style="animation-delay:1.9s" x="448.4" y="484.2" width="3.3" height="3.7" fill="#f2efe6" opacity="0.68"/><rect class="twinkle" style="animation-delay:0.2s" x="623.0" y="295.1" width="3.1" height="2.7" fill="#f2efe6" opacity="0.24"/><rect class="twinkle" style="animation-delay:2.1s" x="534.7" y="676.3" width="2.4" height="4.6" fill="#f2efe6" opacity="0.50"/><rect class="twinkle" style="animation-delay:2.4s" x="631.7" y="573.7" width="4.8" height="4.6" fill="#f2efe6" opacity="0.42"/><rect class="twinkle" style="animation-delay:0.2s" x="589.2" y="462.8" width="2.6" height="2.5" fill="#c9f24e" opacity="0.45"/><rect class="twinkle" style="animation-delay:0.9s" x="574.8" y="488.0" width="3.4" height="4.3" fill="#f2efe6" opacity="0.40"/><rect class="twinkle" style="animation-delay:2.3s" x="549.1" y="337.4" width="2.4" height="3.4" fill="#c9f24e" opacity="0.30"/><rect class="twinkle" style="animation-delay:1.5s" x="442.1" y="243.2" width="2.2" height="2.1" fill="#c9f24e" opacity="0.42"/><rect class="twinkle" style="animation-delay:1.2s" x="501.9" y="567.7" width="2.1" height="4.9" fill="#f2efe6" opacity="0.31"/><rect class="twinkle" style="animation-delay:2.2s" x="555.6" y="396.3" width="2.8" height="4.4" fill="#c9f24e" opacity="0.43"/><rect class="twinkle" style="animation-delay:2.4s" x="633.2" y="374.3" width="3.9" height="3.0" fill="#f2efe6" opacity="0.25"/><rect class="twinkle" style="animation-delay:0.1s" x="570.6" y="695.2" width="2.3" height="2.5" fill="#c9f24e" opacity="0.22"/><rect class="twinkle" style="animation-delay:0.3s" x="636.6" y="272.1" width="3.2" height="3.0" fill="#f2efe6" opacity="0.54"/><rect class="twinkle" style="animation-delay:2.5s" x="632.1" y="313.8" width="3.7" height="4.8" fill="#f2efe6" opacity="0.38"/><rect class="twinkle" style="animation-delay:1.8s" x="520.2" y="359.3" width="4.1" height="3.2" fill="#f2efe6" opacity="0.44"/><rect class="twinkle" style="animation-delay:2.3s" x="438.5" y="571.1" width="4.0" height="2.3" fill="#f2efe6" opacity="0.32"/><rect class="twinkle" style="animation-delay:1.2s" x="583.2" y="390.2" width="4.9" height="2.3" fill="#c9f24e" opacity="0.48"/><rect class="twinkle" style="animation-delay:1.8s" x="460.2" y="253.4" width="2.0" height="2.7" fill="#f2efe6" opacity="0.68"/><rect class="twinkle" style="animation-delay:2.5s" x="533.8" y="320.3" width="2.3" height="2.1" fill="#c9f24e" opacity="0.68"/><rect class="twinkle" style="animation-delay:0.7s" x="449.8" y="658.8" width="4.5" height="3.8" fill="#f2efe6" opacity="0.52"/><rect class="twinkle" style="animation-delay:1.3s" x="590.4" y="648.4" width="2.3" height="4.5" fill="#f2efe6" opacity="0.50"/><rect class="twinkle" style="animation-delay:2.2s" x="603.7" y="328.9" width="2.2" height="3.0" fill="#f2efe6" opacity="0.44"/><rect class="twinkle" style="animation-delay:0.5s" x="483.8" y="436.8" width="4.8" height="4.2" fill="#c9f24e" opacity="0.64"/><rect class="twinkle" style="animation-delay:1.3s" x="646.6" y="523.8" width="4.8" height="4.7" fill="#f2efe6" opacity="0.67"/><rect class="twinkle" style="animation-delay:2.8s" x="521.0" y="601.3" width="2.9" height="4.8" fill="#f2efe6" opacity="0.29"/><rect class="twinkle" style="animation-delay:0.8s" x="529.9" y="536.8" width="3.3" height="3.0" fill="#f2efe6" opacity="0.57"/><rect class="twinkle" style="animation-delay:1.2s" x="586.7" y="367.9" width="2.2" height="2.5" fill="#f2efe6" opacity="0.58"/><rect class="twinkle" style="animation-delay:1.4s" x="619.0" y="408.8" width="3.6" height="3.6" fill="#f2efe6" opacity="0.38"/><rect class="twinkle" style="animation-delay:2.4s" x="613.2" y="366.9" width="2.9" height="2.7" fill="#f2efe6" opacity="0.60"/><rect class="twinkle" style="animation-delay:2.3s" x="534.0" y="309.6" width="3.4" height="4.9" fill="#c9f24e" opacity="0.59"/><rect class="twinkle" style="animation-delay:1.3s" x="644.8" y="246.9" width="3.0" height="2.2" fill="#c9f24e" opacity="0.47"/><rect class="twinkle" style="animation-delay:1.3s" x="600.5" y="430.7" width="3.9" height="4.0" fill="#c9f24e" opacity="0.66"/><rect class="twinkle" style="animation-delay:2.4s" x="602.1" y="348.7" width="3.5" height="4.5" fill="#f2efe6" opacity="0.48"/><rect class="twinkle" style="animation-delay:2.7s" x="469.9" y="311.0" width="4.7" height="3.4" fill="#f2efe6" opacity="0.53"/><rect class="twinkle" style="animation-delay:1.6s" x="632.2" y="620.7" width="2.5" height="2.5" fill="#f2efe6" opacity="0.54"/><rect class="twinkle" style="animation-delay:1.4s" x="648.0" y="492.6" width="4.4" height="3.4" fill="#f2efe6" opacity="0.68"/><rect class="twinkle" style="animation-delay:1.6s" x="632.8" y="524.0" width="3.5" height="2.8" fill="#f2efe6" opacity="0.55"/><rect class="twinkle" style="animation-delay:1.5s" x="627.9" y="279.2" width="4.7" height="4.9" fill="#f2efe6" opacity="0.52"/><rect class="twinkle" style="animation-delay:2.5s" x="448.8" y="671.9" width="2.9" height="2.8" fill="#f2efe6" opacity="0.67"/><rect class="twinkle" style="animation-delay:0.4s" x="636.0" y="382.3" width="2.8" height="4.9" fill="#f2efe6" opacity="0.24"/><rect x="140.0" y="468.0" width="520" height="2" fill="#c9f24e" opacity="0.5"><animate attributeName="y" values="240.0;700.0;240.0" dur="5s" repeatCount="indefinite"/></rect>
  <text x="34" y="54" font-family="'JetBrains Mono',monospace" font-size="15" letter-spacing="2"
        fill="#f2efe6" opacity="0.62">MASK // 03</text>
  <text x="766" y="54" text-anchor="end" font-family="'JetBrains Mono',monospace" font-size="13"
        letter-spacing="3" fill="#c9f24e" opacity="0.85">PRIVACY · MV3</text>
  <text x="34" y="966" font-family="'JetBrains Mono',monospace" font-size="13" letter-spacing="3"
        fill="#f2efe6" opacity="0.4">SYS // SECURE</text>
  <text x="770" y="850" text-anchor="end" font-family="'Syne','Arial Black',sans-serif"
        font-weight="800" font-size="320" fill="none" stroke="#f2efe6" stroke-width="1"
        opacity="0.06" letter-spacing="-10">03</text>
</svg>