<svg xmlns="http://www.w3.org/2000/svg" viewBox="0 0 800 1000" width="800" height="1000" role="img">
  <style>
    text { -webkit-font-smoothing:antialiased; }
    .spin { transform-box:fill-box; transform-origin:center; animation:spin 22s linear infinite; }
    .spinr { transform-box:fill-box; transform-origin:center; animation:spin 30s linear infinite reverse; }
    .pulse { animation:pulse 3.4s ease-in-out infinite; transform-box:fill-box; transform-origin:center; }
    .flow { stroke-dasharray:10 14; animation:flow 2.6s linear infinite; }
    .flowS { stroke-dasharray:4 10; animation:flow 1.8s linear infinite; }
    .twinkle { animation:twinkle 3s ease-in-out infinite; }
    .sweep { transform-box:fill-box; transform-origin:center; animation:spin 6s linear infinite; }
    .draw { stroke-dasharray:1600; stroke-dashoffset:1600; animation:draw 4s ease-in-out infinite alternate; }
    @keyframes spin { to { transform:rotate(360deg); } }
    @keyframes pulse { 0%,100%{ opacity:.35; transform:scale(.94);} 50%{ opacity:1; transform:scale(1.06);} }
    @keyframes flow { to { stroke-dashoffset:-48; } }
    @keyframes twinkle { 0%,100%{opacity:.25;} 50%{opacity:1;} }
    @keyframes draw { to { stroke-dashoffset:0; } }
    
  </style>
  <g stroke="#f2efe6" stroke-width="1" opacity="0.05"><line x1="40" y1="0" x2="40" y2="1000"/><line x1="80" y1="0" x2="80" y2="1000"/><line x1="120" y1="0" x2="120" y2="1000"/><line x1="160" y1="0" x2="160" y2="1000"/><line x1="200" y1="0" x2="200" y2="1000"/><line x1="240" y1="0" x2="240" y2="1000"/><line x1="280" y1="0" x2="280" y2="1000"/><line x1="320" y1="0" x2="320" y2="1000"/><line x1="360" y1="0" x2="360" y2="1000"/><line x1="400" y1="0" x2="400" y2="1000"/><line x1="440" y1="0" x2="440" y2="1000"/><line x1="480" y1="0" x2="480" y2="1000"/><line x1="520" y1="0" x2="520" y2="1000"/><line x1="560" y1="0" x2="560" y2="1000"/><line x1="600" y1="0" x2="600" y2="1000"/><line x1="640" y1="0" x2="640" y2="1000"/><line x1="680" y1="0" x2="680" y2="1000"/><line x1="720" y1="0" x2="720" y2="1000"/><line x1="760" y1="0" x2="760" y2="1000"/><line x1="0" y1="40" x2="800" y2="40"/><line x1="0" y1="80" x2="800" y2="80"/><line x1="0" y1="120" x2="800" y2="120"/><line x1="0" y1="160" x2="800" y2="160"/><line x1="0" y1="200" x2="800" y2="200"/><line x1="0" y1="240" x2="800" y2="240"/><line x1="0" y1="280" x2="800" y2="280"/><line x1="0" y1="320" x2="800" y2="320"/><line x1="0" y1="360" x2="800" y2="360"/><line x1="0" y1="400" x2="800" y2="400"/><line x1="0" y1="440" x2="800" y2="440"/><line x1="0" y1="480" x2="800" y2="480"/><line x1="0" y1="520" x2="800" y2="520"/><line x1="0" y1="560" x2="800" y2="560"/><line x1="0" y1="600" x2="800" y2="600"/><line x1="0" y1="640" x2="800" y2="640"/><line x1="0" y1="680" x2="800" y2="680"/><line x1="0" y1="720" x2="800" y2="720"/><line x1="0" y1="760" x2="800" y2="760"/><line x1="0" y1="800" x2="800" y2="800"/><line x1="0" y1="840" x2="800" y2="840"/><line x1="0" y1="880" x2="800" y2="880"/><line x1="0" y1="920" x2="800" y2="920"/><line x1="0" y1="960" x2="800" y2="960"/></g><line x1="30" y1="30" x2="56" y2="30" stroke="#c9f24e" stroke-width="2"/><line x1="30" y1="30" x2="30" y2="56" stroke="#c9f24e" stroke-width="2"/><line x1="770" y1="30" x2="744" y2="30" stroke="#c9f24e" stroke-width="2"/><line x1="770" y1="30" x2="770" y2="56" stroke="#c9f24e" stroke-width="2"/><line x1="30" y1="970" x2="56" y2="970" stroke="#c9f24e" stroke-width="2"/><line x1="30" y1="970" x2="30" y2="944" stroke="#c9f24e" stroke-width="2"/><line x1="770" y1="970" x2="744" y2="970" stroke="#c9f24e" stroke-width="2"/><line x1="770" y1="970" x2="770" y2="944" stroke="#c9f24e" stroke-width="2"/><circle cx="400.0" cy="450.0" r="250" fill="none" stroke="#f2efe6" stroke-width="1.3" opacity="0.16"/><circle cx="400.0" cy="450.0" r="210" fill="none" stroke="#f2efe6" stroke-width="1.3" opacity="0.21000000000000002"/><circle cx="400.0" cy="450.0" r="170" fill="none" stroke="#f2efe6" stroke-width="1.3" opacity="0.26"/><line x1="650.0" y1="450.0" x2="670.0" y2="450.0" stroke="#c9f24e" stroke-width="2" opacity="0.5"/><line x1="646.9" y1="489.1" x2="658.8" y2="491.0" stroke="#f2efe6" stroke-width="1" opacity="0.5"/><line x1="637.8" y1="527.3" x2="649.2" y2="531.0" stroke="#f2efe6" stroke-width="1" opacity="0.5"/><line x1="622.8" y1="563.5" x2="633.4" y2="568.9" stroke="#f2efe6" stroke-width="1" opacity="0.5"/><line x1="602.3" y1="596.9" x2="612.0" y2="604.0" stroke="#f2efe6" stroke-width="1" opacity="0.5"/><line x1="576.8" y1="626.8" x2="590.9" y2="640.9" stroke="#c9f24e" stroke-width="2" opacity="0.5"/><line x1="546.9" y1="652.3" x2="554.0" y2="662.0" stroke="#f2efe6" stroke-width="1" opacity="0.5"/><line x1="513.5" y1="672.8" x2="518.9" y2="683.4" stroke="#f2efe6" stroke-width="1" opacity="0.5"/><line x1="477.3" y1="687.8" x2="481.0" y2="699.2" stroke="#f2efe6" stroke-width="1" opacity="0.5"/><line x1="439.1" y1="696.9" x2="441.0" y2="708.8" stroke="#f2efe6" stroke-width="1" opacity="0.5"/><line x1="400.0" y1="700.0" x2="400.0" y2="720.0" stroke="#c9f24e" stroke-width="2" opacity="0.5"/><line x1="360.9" y1="696.9" x2="359.0" y2="708.8" stroke="#f2efe6" stroke-width="1" opacity="0.5"/><line x1="322.7" y1="687.8" x2="319.0" y2="699.2" stroke="#f2efe6" stroke-width="1" opacity="0.5"/><line x1="286.5" y1="672.8" x2="281.1" y2="683.4" stroke="#f2efe6" stroke-width="1" opacity="0.5"/><line x1="253.1" y1="652.3" x2="246.0" y2="662.0" stroke="#f2efe6" stroke-width="1" opacity="0.5"/><line x1="223.2" y1="626.8" x2="209.1" y2="640.9" stroke="#c9f24e" stroke-width="2" opacity="0.5"/><line x1="197.7" y1="596.9" x2="188.0" y2="604.0" stroke="#f2efe6" stroke-width="1" opacity="0.5"/><line x1="177.2" y1="563.5" x2="166.6" y2="568.9" stroke="#f2efe6" stroke-width="1" opacity="0.5"/><line x1="162.2" y1="527.3" x2="150.8" y2="531.0" stroke="#f2efe6" stroke-width="1" opacity="0.5"/><line x1="153.1" y1="489.1" x2="141.2" y2="491.0" stroke="#f2efe6" stroke-width="1" opacity="0.5"/><line x1="150.0" y1="450.0" x2="130.0" y2="450.0" stroke="#c9f24e" stroke-width="2" opacity="0.5"/><line x1="153.1" y1="410.9" x2="141.2" y2="409.0" stroke="#f2efe6" stroke-width="1" opacity="0.5"/><line x1="162.2" y1="372.7" x2="150.8" y2="369.0" stroke="#f2efe6" stroke-width="1" opacity="0.5"/><line x1="177.2" y1="336.5" x2="166.6" y2="331.1" stroke="#f2efe6" stroke-width="1" opacity="0.5"/><line x1="197.7" y1="303.1" x2="188.0" y2="296.0" stroke="#f2efe6" stroke-width="1" opacity="0.5"/><line x1="223.2" y1="273.2" x2="209.1" y2="259.1" stroke="#c9f24e" stroke-width="2" opacity="0.5"/><line x1="253.1" y1="247.7" x2="246.0" y2="238.0" stroke="#f2efe6" stroke-width="1" opacity="0.5"/><line x1="286.5" y1="227.2" x2="281.1" y2="216.6" stroke="#f2efe6" stroke-width="1" opacity="0.5"/><line x1="322.7" y1="212.2" x2="319.0" y2="200.8" stroke="#f2efe6" stroke-width="1" opacity="0.5"/><line x1="360.9" y1="203.1" x2="359.0" y2="191.2" stroke="#f2efe6" stroke-width="1" opacity="0.5"/><line x1="400.0" y1="200.0" x2="400.0" y2="180.0" stroke="#c9f24e" stroke-width="2" opacity="0.5"/><line x1="439.1" y1="203.1" x2="441.0" y2="191.2" stroke="#f2efe6" stroke-width="1" opacity="0.5"/><line x1="477.3" y1="212.2" x2="481.0" y2="200.8" stroke="#f2efe6" stroke-width="1" opacity="0.5"/><line x1="513.5" y1="227.2" x2="518.9" y2="216.6" stroke="#f2efe6" stroke-width="1" opacity="0.5"/><line x1="546.9" y1="247.7" x2="554.0" y2="238.0" stroke="#f2efe6" stroke-width="1" opacity="0.5"/><line x1="576.8" y1="273.2" x2="590.9" y2="259.1" stroke="#c9f24e" stroke-width="2" opacity="0.5"/><line x1="602.3" y1="303.1" x2="612.0" y2="296.0" stroke="#f2efe6" stroke-width="1" opacity="0.5"/><line x1="622.8" y1="336.5" x2="633.4" y2="331.1" stroke="#f2efe6" stroke-width="1" opacity="0.5"/><line x1="637.8" y1="372.7" x2="649.2" y2="369.0" stroke="#f2efe6" stroke-width="1" opacity="0.5"/><line x1="646.9" y1="410.9" x2="658.8" y2="409.0" stroke="#f2efe6" stroke-width="1" opacity="0.5"/><g class="spin"><line x1="400.0" y1="450.0" x2="570.0" y2="450.0" stroke="#f2efe6" stroke-width="2" opacity="0.25"/><line x1="400.0" y1="450.0" x2="520.2" y2="570.2" stroke="#f2efe6" stroke-width="2" opacity="0.25"/><line x1="400.0" y1="450.0" x2="400.0" y2="620.0" stroke="#f2efe6" stroke-width="2" opacity="0.25"/><line x1="400.0" y1="450.0" x2="279.8" y2="570.2" stroke="#f2efe6" stroke-width="2" opacity="0.25"/><line x1="400.0" y1="450.0" x2="230.0" y2="450.0" stroke="#f2efe6" stroke-width="2" opacity="0.25"/><line x1="400.0" y1="450.0" x2="279.8" y2="329.8" stroke="#f2efe6" stroke-width="2" opacity="0.25"/><line x1="400.0" y1="450.0" x2="400.0" y2="280.0" stroke="#f2efe6" stroke-width="2" opacity="0.25"/><line x1="400.0" y1="450.0" x2="520.2" y2="329.8" stroke="#f2efe6" stroke-width="2" opacity="0.25"/></g><circle class="pulse" cx="400.0" cy="450.0" r="46" fill="#c9f24e" opacity="0.12" stroke="#c9f24e" stroke-width="2"/><rect x="384.0" y="444.0" width="32" height="30" rx="4" fill="none" stroke="#c9f24e" stroke-width="3"/><path d="M390.0,444.0 v-12 a10,10 0 0 1 20,0 v12" fill="none" stroke="#c9f24e" stroke-width="3"/><rect x="250.0" y="680.0" width="300" height="180" rx="16" fill="none" stroke="#f2efe6" stroke-width="1.5" opacity="0.35"/><rect x="282.0" y="720.0" width="46" height="34" rx="6" fill="#c9f24e" opacity="0.5"/><rect x="282.0" y="790.0" width="48" height="10" rx="3" fill="#f2efe6" opacity="0.25"/><rect x="352.0" y="790.0" width="48" height="10" rx="3" fill="#f2efe6" opacity="0.25"/><rect x="422.0" y="790.0" width="48" height="10" rx="3" fill="#f2efe6" opacity="0.25"/><rect x="492.0" y="790.0" width="48" height="10" rx="3" fill="#f2efe6" opacity="0.25"/>
  <text x="34" y="54" font-family="'JetBrains Mono',monospace" font-size="15" letter-spacing="2"
        fill="#f2efe6" opacity="0.62">PAY // 05</text>
  <text x="766" y="54" text-anchor="end" font-family="'JetBrains Mono',monospace" font-size="13"
        letter-spacing="3" fill="#c9f24e" opacity="0.85">SECURE BANKING</text>
  <text x="34" y="966" font-family="'JetBrains Mono',monospace" font-size="13" letter-spacing="3"
        fill="#f2efe6" opacity="0.4">SYS // SECURE</text>
  <text x="770" y="850" text-anchor="end" font-family="'Syne','Arial Black',sans-serif"
        font-weight="800" font-size="320" fill="none" stroke="#f2efe6" stroke-width="1"
        opacity="0.06" letter-spacing="-10">05</text>
</svg>