<svg xmlns="http://www.w3.org/2000/svg" viewBox="0 0 800 1000" width="800" height="1000" role="img">
  <style>
    text { -webkit-font-smoothing:antialiased; }
    .spin { transform-box:fill-box; transform-origin:center; animation:spin 22s linear infinite; }
    .spinr { transform-box:fill-box; transform-origin:center; animation:spin 30s linear infinite reverse; }
    .pulse { animation:pulse 3.4s ease-in-out infinite; transform-box:fill-box; transform-origin:center; }
    .flow { stroke-dasharray:10 14; animation:flow 2.6s linear infinite; }
    .flowS { stroke-dasharray:4 10; animation:flow 1.8s linear infinite; }
    .twinkle { animation:twinkle 3s ease-in-out infinite; }
    .sweep { transform-box:fill-box; transform-origin:center; animation:spin 6s linear infinite; }
    .draw { stroke-dasharray:1600; stroke-dashoffset:1600; animation:draw 4s ease-in-out infinite alternate; }
    @keyframes spin { to { transform:rotate(360deg); } }
    @keyframes pulse { 0%,100%{ opacity:.35; transform:scale(.94);} 50%{ opacity:1; transform:scale(1.06);} }
    @keyframes flow { to { stroke-dashoffset:-48; } }
    @keyframes twinkle { 0%,100%{opacity:.25;} 50%{opacity:1;} }
    @keyframes draw { to { stroke-dashoffset:0; } }
    
  </style>
  <g stroke="#f2efe6" stroke-width="1" opacity="0.05"><line x1="40" y1="0" x2="40" y2="1000"/><line x1="80" y1="0" x2="80" y2="1000"/><line x1="120" y1="0" x2="120" y2="1000"/><line x1="160" y1="0" x2="160" y2="1000"/><line x1="200" y1="0" x2="200" y2="1000"/><line x1="240" y1="0" x2="240" y2="1000"/><line x1="280" y1="0" x2="280" y2="1000"/><line x1="320" y1="0" x2="320" y2="1000"/><line x1="360" y1="0" x2="360" y2="1000"/><line x1="400" y1="0" x2="400" y2="1000"/><line x1="440" y1="0" x2="440" y2="1000"/><line x1="480" y1="0" x2="480" y2="1000"/><line x1="520" y1="0" x2="520" y2="1000"/><line x1="560" y1="0" x2="560" y2="1000"/><line x1="600" y1="0" x2="600" y2="1000"/><line x1="640" y1="0" x2="640" y2="1000"/><line x1="680" y1="0" x2="680" y2="1000"/><line x1="720" y1="0" x2="720" y2="1000"/><line x1="760" y1="0" x2="760" y2="1000"/><line x1="0" y1="40" x2="800" y2="40"/><line x1="0" y1="80" x2="800" y2="80"/><line x1="0" y1="120" x2="800" y2="120"/><line x1="0" y1="160" x2="800" y2="160"/><line x1="0" y1="200" x2="800" y2="200"/><line x1="0" y1="240" x2="800" y2="240"/><line x1="0" y1="280" x2="800" y2="280"/><line x1="0" y1="320" x2="800" y2="320"/><line x1="0" y1="360" x2="800" y2="360"/><line x1="0" y1="400" x2="800" y2="400"/><line x1="0" y1="440" x2="800" y2="440"/><line x1="0" y1="480" x2="800" y2="480"/><line x1="0" y1="520" x2="800" y2="520"/><line x1="0" y1="560" x2="800" y2="560"/><line x1="0" y1="600" x2="800" y2="600"/><line x1="0" y1="640" x2="800" y2="640"/><line x1="0" y1="680" x2="800" y2="680"/><line x1="0" y1="720" x2="800" y2="720"/><line x1="0" y1="760" x2="800" y2="760"/><line x1="0" y1="800" x2="800" y2="800"/><line x1="0" y1="840" x2="800" y2="840"/><line x1="0" y1="880" x2="800" y2="880"/><line x1="0" y1="920" x2="800" y2="920"/><line x1="0" y1="960" x2="800" y2="960"/></g><line x1="30" y1="30" x2="56" y2="30" stroke="#c9f24e" stroke-width="2"/><line x1="30" y1="30" x2="30" y2="56" stroke="#c9f24e" stroke-width="2"/><line x1="770" y1="30" x2="744" y2="30" stroke="#c9f24e" stroke-width="2"/><line x1="770" y1="30" x2="770" y2="56" stroke="#c9f24e" stroke-width="2"/><line x1="30" y1="970" x2="56" y2="970" stroke="#c9f24e" stroke-width="2"/><line x1="30" y1="970" x2="30" y2="944" stroke="#c9f24e" stroke-width="2"/><line x1="770" y1="970" x2="744" y2="970" stroke="#c9f24e" stroke-width="2"/><line x1="770" y1="970" x2="770" y2="944" stroke="#c9f24e" stroke-width="2"/><circle cx="400.0" cy="470.0" r="90" fill="none" stroke="#f2efe6" stroke-width="1" opacity="0.14"/><circle cx="400.0" cy="470.0" r="170" fill="none" stroke="#f2efe6" stroke-width="1" opacity="0.14"/><circle cx="400.0" cy="470.0" r="250" fill="none" stroke="#f2efe6" stroke-width="1" opacity="0.14"/><circle cx="400.0" cy="470.0" r="320" fill="none" stroke="#f2efe6" stroke-width="1" opacity="0.14"/><line x1="400.0" y1="470.0" x2="720.0" y2="470.0" stroke="#f2efe6" stroke-width="1" opacity="0.08"/><line x1="400.0" y1="470.0" x2="677.1" y2="630.0" stroke="#f2efe6" stroke-width="1" opacity="0.08"/><line x1="400.0" y1="470.0" x2="560.0" y2="747.1" stroke="#f2efe6" stroke-width="1" opacity="0.08"/><line x1="400.0" y1="470.0" x2="400.0" y2="790.0" stroke="#f2efe6" stroke-width="1" opacity="0.08"/><line x1="400.0" y1="470.0" x2="240.0" y2="747.1" stroke="#f2efe6" stroke-width="1" opacity="0.08"/><line x1="400.0" y1="470.0" x2="122.9" y2="630.0" stroke="#f2efe6" stroke-width="1" opacity="0.08"/><line x1="400.0" y1="470.0" x2="80.0" y2="470.0" stroke="#f2efe6" stroke-width="1" opacity="0.08"/><line x1="400.0" y1="470.0" x2="122.9" y2="310.0" stroke="#f2efe6" stroke-width="1" opacity="0.08"/><line x1="400.0" y1="470.0" x2="240.0" y2="192.9" stroke="#f2efe6" stroke-width="1" opacity="0.08"/><line x1="400.0" y1="470.0" x2="400.0" y2="150.0" stroke="#f2efe6" stroke-width="1" opacity="0.08"/><line x1="400.0" y1="470.0" x2="560.0" y2="192.9" stroke="#f2efe6" stroke-width="1" opacity="0.08"/><line x1="400.0" y1="470.0" x2="677.1" y2="310.0" stroke="#f2efe6" stroke-width="1" opacity="0.08"/><g class="sweep">
      <path d="M400.0,470.0 L720.0,470.0 A320,320 0 0 0 637.8,255.9 Z" fill="#c9f24e" opacity="0.10"/>
      <line x1="400.0" y1="470.0" x2="720.0" y2="470.0" stroke="#c9f24e" stroke-width="2" opacity="0.7"/>
    </g><circle class="twinkle" style="animation-delay:1.9s" cx="513.3" cy="661.4" r="3" fill="#f2efe6" opacity="0.5"/><circle class="twinkle" style="animation-delay:2.4s" cx="296.9" cy="483.6" r="3" fill="#f2efe6" opacity="0.5"/><circle class="twinkle" style="animation-delay:1.5s" cx="463.3" cy="303.5" r="3" fill="#f2efe6" opacity="0.5"/><circle class="twinkle" style="animation-delay:1.1s" cx="404.4" cy="520.6" r="3" fill="#f2efe6" opacity="0.5"/><circle class="twinkle" style="animation-delay:2.4s" cx="342.1" cy="435.6" r="3" fill="#f2efe6" opacity="0.5"/><circle class="twinkle" style="animation-delay:0.1s" cx="412.0" cy="577.5" r="3" fill="#f2efe6" opacity="0.5"/><circle class="twinkle" style="animation-delay:2.6s" cx="634.6" cy="466.4" r="3" fill="#f2efe6" opacity="0.5"/><circle class="twinkle" style="animation-delay:1.0s" cx="356.3" cy="431.1" r="3" fill="#f2efe6" opacity="0.5"/><circle class="twinkle" style="animation-delay:2.9s" cx="321.1" cy="471.2" r="3" fill="#f2efe6" opacity="0.5"/><circle class="twinkle" style="animation-delay:2.5s" cx="339.9" cy="535.3" r="3" fill="#f2efe6" opacity="0.5"/><circle class="twinkle" style="animation-delay:1.4s" cx="599.5" cy="669.2" r="3" fill="#f2efe6" opacity="0.5"/><circle class="twinkle" style="animation-delay:1.5s" cx="271.5" cy="426.4" r="3" fill="#f2efe6" opacity="0.5"/><circle class="twinkle" style="animation-delay:2.6s" cx="422.9" cy="524.7" r="3" fill="#f2efe6" opacity="0.5"/><circle class="twinkle" style="animation-delay:0.6s" cx="423.3" cy="714.0" r="3" fill="#f2efe6" opacity="0.5"/><circle class="twinkle" style="animation-delay:2.3s" cx="668.2" cy="416.7" r="3" fill="#f2efe6" opacity="0.5"/><circle class="twinkle" style="animation-delay:2.2s" cx="415.7" cy="275.4" r="3" fill="#f2efe6" opacity="0.5"/><circle class="twinkle" style="animation-delay:2.5s" cx="521.4" cy="587.6" r="3" fill="#f2efe6" opacity="0.5"/><circle class="twinkle" style="animation-delay:2.7s" cx="485.0" cy="737.6" r="3" fill="#f2efe6" opacity="0.5"/><circle class="twinkle" style="animation-delay:1.4s" cx="280.9" cy="546.0" r="3" fill="#f2efe6" opacity="0.5"/><circle class="twinkle" style="animation-delay:1.2s" cx="175.0" cy="666.4" r="3" fill="#f2efe6" opacity="0.5"/><circle class="twinkle" style="animation-delay:2.2s" cx="472.3" cy="482.3" r="3" fill="#f2efe6" opacity="0.5"/><circle class="twinkle" style="animation-delay:1.5s" cx="573.8" cy="462.2" r="3" fill="#f2efe6" opacity="0.5"/><circle class="pulse" cx="550.0" cy="350.0" r="16" fill="none" stroke="#c9f24e" stroke-width="2.5"/><circle cx="550.0" cy="350.0" r="5" fill="#c9f24e"/><text x="574.0" y="355.0" font-family="JetBrains Mono,monospace" font-size="14" fill="#c9f24e" opacity="0.9">ANOMALY</text><circle cx="400.0" cy="470.0" r="6" fill="#c9f24e"/>
  <text x="34" y="54" font-family="'JetBrains Mono',monospace" font-size="15" letter-spacing="2"
        fill="#f2efe6" opacity="0.62">IDS // 06</text>
  <text x="766" y="54" text-anchor="end" font-family="'JetBrains Mono',monospace" font-size="13"
        letter-spacing="3" fill="#c9f24e" opacity="0.85">ML · ANOMALY</text>
  <text x="34" y="966" font-family="'JetBrains Mono',monospace" font-size="13" letter-spacing="3"
        fill="#f2efe6" opacity="0.4">SYS // SECURE</text>
  <text x="770" y="850" text-anchor="end" font-family="'Syne','Arial Black',sans-serif"
        font-weight="800" font-size="320" fill="none" stroke="#f2efe6" stroke-width="1"
        opacity="0.06" letter-spacing="-10">06</text>
</svg>