<svg xmlns="http://www.w3.org/2000/svg" viewBox="0 0 1200 630" width="1200" height="630">
  <rect width="1200" height="630" fill="#0a0a0c"/>
  <g stroke="#f2efe6" stroke-width="1" opacity="0.05">
    <line x1="60" y1="0" x2="60" y2="630"/><line x1="120" y1="0" x2="120" y2="630"/><line x1="180" y1="0" x2="180" y2="630"/><line x1="240" y1="0" x2="240" y2="630"/><line x1="300" y1="0" x2="300" y2="630"/><line x1="360" y1="0" x2="360" y2="630"/><line x1="420" y1="0" x2="420" y2="630"/><line x1="480" y1="0" x2="480" y2="630"/><line x1="540" y1="0" x2="540" y2="630"/><line x1="600" y1="0" x2="600" y2="630"/><line x1="660" y1="0" x2="660" y2="630"/><line x1="720" y1="0" x2="720" y2="630"/><line x1="780" y1="0" x2="780" y2="630"/><line x1="840" y1="0" x2="840" y2="630"/><line x1="900" y1="0" x2="900" y2="630"/><line x1="960" y1="0" x2="960" y2="630"/><line x1="1020" y1="0" x2="1020" y2="630"/><line x1="1080" y1="0" x2="1080" y2="630"/><line x1="1140" y1="0" x2="1140" y2="630"/>
    <line x1="0" y1="60" x2="1200" y2="60"/><line x1="0" y1="120" x2="1200" y2="120"/><line x1="0" y1="180" x2="1200" y2="180"/><line x1="0" y1="240" x2="1200" y2="240"/><line x1="0" y1="300" x2="1200" y2="300"/><line x1="0" y1="360" x2="1200" y2="360"/><line x1="0" y1="420" x2="1200" y2="420"/><line x1="0" y1="480" x2="1200" y2="480"/><line x1="0" y1="540" x2="1200" y2="540"/><line x1="0" y1="600" x2="1200" y2="600"/>
  </g>
  <polygon points="1010,150 1070,250 950,250" fill="none" stroke="#c9f24e" stroke-width="3" opacity="0.8"/>
  <text x="80" y="120" font-family="'JetBrains Mono',monospace" font-size="22" letter-spacing="6" fill="#c9f24e">CYBER SECURITY ENGINEER</text>
  <text x="76" y="320" font-family="'Syne','Arial Black',sans-serif" font-weight="800" font-size="150" letter-spacing="-4" fill="#f2efe6">MUHAMMAD</text>
  <text x="76" y="450" font-family="'Syne','Arial Black',sans-serif" font-weight="800" font-size="150" letter-spacing="-4" fill="none" stroke="#f2efe6" stroke-width="1.5">ABUBAKAR</text>
  <text x="80" y="560" font-family="'JetBrains Mono',monospace" font-size="24" letter-spacing="2" fill="#f2efe6" opacity="0.55">AppSec · DevSecOps · ML Security — GIKI</text>
</svg>